<svg xmlns="http://www.w3.org/2000/svg" width="1600" height="640" viewBox="0 0 1600 640" role="img" aria-labelledby="title desc">
  <title id="title">O3 Code desktop and phone preview placeholder</title>
  <desc id="desc">A placeholder banner showing the O3 Code desktop app with a phone preview beside it.</desc>
  <defs>
    <linearGradient id="background" x1="0" x2="1" y1="0" y2="1">
      <stop offset="0" stop-color="#121417"/>
      <stop offset="0.52" stop-color="#1a2222"/>
      <stop offset="1" stop-color="#10272e"/>
    </linearGradient>
    <linearGradient id="panel" x1="0" x2="1" y1="0" y2="1">
      <stop offset="0" stop-color="#252a2e"/>
      <stop offset="1" stop-color="#111417"/>
    </linearGradient>
    <filter id="shadow" x="-20%" y="-20%" width="140%" height="150%">
      <feDropShadow dx="0" dy="28" stdDeviation="30" flood-color="#000000" flood-opacity="0.35"/>
    </filter>
  </defs>

  <rect width="1600" height="640" fill="url(#background)"/>
  <path d="M0 505 C230 450 330 575 560 520 C790 465 860 355 1110 405 C1315 446 1425 360 1600 318 L1600 640 L0 640 Z" fill="#0e1517" opacity="0.7"/>

  <g filter="url(#shadow)">
    <rect x="156" y="100" width="940" height="500" rx="34" fill="#0c0e10"/>
    <rect x="176" y="120" width="900" height="460" rx="24" fill="url(#panel)"/>
    <rect x="176" y="120" width="900" height="54" rx="24" fill="#20262a"/>
    <circle cx="214" cy="147" r="8" fill="#fb6a5f"/>
    <circle cx="242" cy="147" r="8" fill="#f5be4f"/>
    <circle cx="270" cy="147" r="8" fill="#58c16b"/>

    <rect x="212" y="208" width="214" height="28" rx="14" fill="#e7f6f1"/>
    <rect x="212" y="260" width="338" height="18" rx="9" fill="#74817c"/>
    <rect x="212" y="294" width="274" height="18" rx="9" fill="#5e6a66"/>
    <rect x="212" y="348" width="658" height="72" rx="16" fill="#151a1d" stroke="#323b40"/>
    <rect x="240" y="376" width="258" height="18" rx="9" fill="#3fc68c"/>
    <rect x="240" y="404" width="492" height="10" rx="5" fill="#4d5855"/>
    <rect x="212" y="446" width="582" height="72" rx="16" fill="#151a1d" stroke="#323b40"/>
    <rect x="240" y="474" width="392" height="18" rx="9" fill="#55b7ff"/>
    <rect x="240" y="502" width="432" height="10" rx="5" fill="#4d5855"/>
    <rect x="842" y="220" width="176" height="176" rx="26" fill="#102f34" stroke="#3fc68c" stroke-opacity="0.5"/>
    <path d="M895 322 L922 349 L975 287" fill="none" stroke="#3fc68c" stroke-width="18" stroke-linecap="round" stroke-linejoin="round"/>
  </g>

  <g filter="url(#shadow)">
    <rect x="1112" y="142" width="300" height="470" rx="48" fill="#07090a"/>
    <rect x="1130" y="164" width="264" height="426" rx="34" fill="#161b1e"/>
    <rect x="1208" y="182" width="108" height="10" rx="5" fill="#2b3438"/>
    <rect x="1160" y="238" width="148" height="20" rx="10" fill="#e7f6f1"/>
    <rect x="1160" y="280" width="184" height="12" rx="6" fill="#6f7d79"/>
    <rect x="1160" y="306" width="134" height="12" rx="6" fill="#56615e"/>
    <rect x="1160" y="354" width="174" height="62" rx="16" fill="#0f1416" stroke="#303a3e"/>
    <rect x="1182" y="378" width="98" height="14" rx="7" fill="#3fc68c"/>
    <rect x="1182" y="400" width="120" height="8" rx="4" fill="#4d5855"/>
    <rect x="1160" y="438" width="202" height="62" rx="16" fill="#0f1416" stroke="#303a3e"/>
    <rect x="1182" y="462" width="112" height="14" rx="7" fill="#55b7ff"/>
    <rect x="1182" y="484" width="148" height="8" rx="4" fill="#4d5855"/>
  </g>

  <text x="158" y="66" fill="#e7f6f1" font-family="Inter, ui-sans-serif, system-ui, -apple-system, BlinkMacSystemFont, Segoe UI, sans-serif" font-size="30" font-weight="700">O3 Code</text>
  <text x="1256" y="88" fill="#8ea29c" font-family="Inter, ui-sans-serif, system-ui, -apple-system, BlinkMacSystemFont, Segoe UI, sans-serif" font-size="18" text-anchor="middle">desktop plus phone preview</text>
</svg>
